<?xml version="1.0" encoding="UTF-8"?>
<svg id="_레이어_2" data-name="레이어 2" xmlns="http://www.w3.org/2000/svg" viewBox="0 0 314 314">
  <g id="_레이어_1-2" data-name="레이어 1">
    <g>
      <path d="M157,314C70.43,314,0,243.57,0,157S70.43,0,157,0s157,70.43,157,157-70.43,157-157,157ZM157,6C73.74,6,6,73.74,6,157s67.74,151,151,151,151-67.74,151-151S240.26,6,157,6Z"/>
      <g>
        <path d="M233.76,236.04l.24.24c-.36.38-.56.72-.59,1.03-.03.31.24.58.82.79l5.18,2.07,7.1-7.36-2.1-4.67c-.25-.59-.53-.96-.82-1.1-.3-.15-.7.04-1.2.56l-.24-.24,3.3-3.42.24.24c-.17.21-.28.43-.31.67s-.04.46-.01.7c.03.23.09.46.18.69.09.23.19.46.29.68l9,20.76-1.3,1.35-21.95-8.61c-.61-.25-1.22-.15-1.82.27l-.25-.24,4.24-4.4ZM252.1,245.36l-4.86-10.91-6.22,6.46,11.08,4.46Z"/>
        <path d="M214.84,250.44l12.59-8.73.19.28c-.3.21-.53.39-.68.54-.16.15-.25.3-.28.46-.03.16,0,.33.1.53.09.2.25.45.47.77l10.82,15.6c.21.3.39.53.55.7.16.17.31.26.47.29.16.03.33,0,.53-.1.2-.1.44-.25.74-.45l.19.28-5.13,3.56-.19-.28c.3-.21.53-.39.7-.55.17-.16.27-.32.31-.48.04-.16.01-.35-.07-.55-.09-.2-.24-.46-.46-.78l-10.67-15.38c-.12-.17-.25-.26-.42-.27s-.32.02-.47.1c-.15.08-.3.18-.46.3-.15.12-.28.22-.4.29l-4.08,2.83c-.5.35-.94.68-1.3.99-.36.31-.65.63-.85.98-.2.35-.32.74-.35,1.19-.03.45,0,.99.12,1.63l-.42.17-1.56-3.92Z"/>
        <path d="M199.32,258.08l13.81-6.64.15.31c-.33.16-.58.3-.76.42-.18.12-.29.26-.35.41-.05.15-.05.33.01.54.06.21.18.49.34.83l8.23,17.11c.16.33.3.58.43.77.13.19.27.31.42.36.15.05.33.05.54-.01.21-.06.48-.17.8-.33l.15.31-5.63,2.71-.15-.31c.33-.16.58-.3.77-.43.19-.13.32-.27.38-.43.06-.16.07-.34.02-.55-.05-.21-.16-.49-.33-.84l-8.12-16.87c-.09-.18-.21-.29-.37-.33-.16-.04-.32-.03-.48.02-.16.05-.33.13-.5.22-.17.09-.31.17-.44.23l-4.47,2.15c-.55.27-1.03.52-1.44.77-.41.25-.74.52-.99.84-.25.31-.43.68-.54,1.12-.1.44-.15.98-.14,1.63l-.44.1-.93-4.12Z"/>
        <path d="M169.09,272.46c.22-1.5.68-2.86,1.39-4.09.71-1.23,1.67-2.27,2.88-3.12,1.21-.85,2.66-1.42,4.35-1.72,1.72-.31,3.29-.27,4.71.11,1.42.38,2.68,1.02,3.77,1.92,1.09.9,1.99,2.02,2.7,3.37.71,1.34,1.21,2.82,1.5,4.43.35,1.98.36,3.77.02,5.34-.34,1.58-.92,2.95-1.75,4.12-.83,1.17-1.83,2.11-3.02,2.83-1.18.72-2.43,1.19-3.75,1.41-1.32.22-2.66.2-4.01-.06-1.36-.26-2.63-.8-3.8-1.6-1.18-.8-2.2-1.89-3.07-3.27-.87-1.38-1.47-3.04-1.82-5.01-.29-1.61-.32-3.16-.11-4.66ZM173.26,280.07c.5,1.17,1.13,2.19,1.91,3.06.78.87,1.7,1.54,2.77,1.99,1.07.45,2.29.56,3.68.31,1.4-.25,2.53-.77,3.38-1.57.85-.8,1.48-1.74,1.91-2.83.43-1.09.67-2.26.72-3.51.05-1.25-.03-2.47-.24-3.65-.21-1.18-.56-2.36-1.04-3.52-.48-1.17-1.11-2.18-1.89-3.05-.77-.86-1.7-1.52-2.76-1.96-1.07-.44-2.3-.54-3.71-.29-1.38.25-2.5.76-3.36,1.55-.86.79-1.5,1.72-1.93,2.81-.43,1.09-.67,2.26-.72,3.51-.05,1.25.03,2.47.24,3.65.21,1.16.56,2.32,1.05,3.49Z"/>
        <path d="M150.74,285.12c.07.43.17.77.3,1.02.13.25.3.44.51.56.2.12.45.21.75.24s.65.05,1.05.05l6.66.02c.38,0,.61-.04.66-.12.06-.08.09-.3.09-.66l.02-7.78-6.49-.02c-.36,0-.68.02-.95.05-.27.03-.49.11-.66.22-.17.11-.31.28-.41.51-.1.23-.18.53-.22.92h-.44s.01-5.13.01-5.13h.44c.07.79.26,1.29.59,1.48.33.19.88.29,1.65.29l6.52.02v-9.14c-.01-.39-.03-.69-.06-.9-.03-.22-.11-.38-.22-.49-.11-.11-.28-.19-.49-.22-.21-.03-.52-.05-.9-.05v-.34s6.22.01,6.22.01v.34c-.36,0-.65.02-.87.05-.21.03-.38.11-.49.22-.11.11-.19.28-.22.49-.03.21-.05.51-.05.9l-.05,18.99c0,.36.02.66.05.88.03.23.1.4.2.51.1.11.26.19.47.22.22.03.5.05.87.05v.34s-14.98-.04-14.98-.04l-.03-3.5h.48Z"/>
        <path d="M115.72,280.1l9.85-8.84,2.14-7.9c.11-.39.16-.71.17-.94,0-.23-.06-.42-.18-.56-.13-.14-.31-.25-.54-.34-.23-.09-.54-.18-.91-.28l.09-.33,6.56,1.77-.09.33c-.37-.1-.68-.17-.93-.22-.25-.04-.45-.04-.62.03-.17.06-.31.19-.42.4-.11.2-.22.5-.33.9l-2.11,7.8,4.35,12.68c.17.51.34.92.51,1.23s.52.54,1.04.7l-.09.33-6.2-1.68.09-.33c.26.07.5.12.72.14.22.02.39,0,.52-.05.13-.06.22-.18.25-.35.04-.18,0-.44-.13-.77l-3.43-10.61-8.28,7.58c-.22.2-.34.38-.36.54-.02.16.01.3.1.41.09.12.22.22.39.3.18.08.36.15.56.2l-.09.33-5.12-1.38.09-.33c.9.15,1.69-.11,2.39-.76Z"/>
        <path d="M99.09,256.79c1.05-1.09,2.22-1.93,3.52-2.51,1.3-.58,2.68-.87,4.16-.85,1.48.02,2.99.39,4.54,1.14,1.57.75,2.83,1.7,3.76,2.84.94,1.14,1.59,2.39,1.95,3.76.36,1.37.44,2.8.23,4.31s-.66,3-1.37,4.47c-.87,1.82-1.9,3.27-3.1,4.35-1.2,1.08-2.47,1.86-3.83,2.33-1.35.47-2.72.65-4.1.54-1.38-.11-2.67-.45-3.87-1.04-1.2-.59-2.27-1.38-3.22-2.39-.95-1.01-1.67-2.18-2.16-3.52-.49-1.34-.68-2.82-.59-4.44.1-1.62.58-3.33,1.44-5.13.7-1.47,1.58-2.75,2.63-3.84ZM98.04,265.4c-.28,1.24-.36,2.43-.23,3.6.12,1.16.49,2.24,1.09,3.23.61.99,1.54,1.79,2.81,2.4,1.29.62,2.51.85,3.66.7,1.15-.15,2.22-.55,3.2-1.18.98-.63,1.86-1.44,2.63-2.43.77-.99,1.42-2.02,1.94-3.1.52-1.08.92-2.24,1.21-3.47.29-1.23.37-2.42.24-3.57-.13-1.15-.49-2.22-1.1-3.2-.61-.98-1.56-1.78-2.85-2.4-1.27-.61-2.48-.84-3.64-.7-1.16.14-2.23.52-3.21,1.16-.98.63-1.86,1.44-2.63,2.43-.77.99-1.42,2.02-1.94,3.1-.51,1.06-.9,2.21-1.18,3.45Z"/>
        <path d="M70.02,254.77c.27.21.53.3.79.26.26-.04.5-.15.72-.32.22-.17.43-.38.63-.63.2-.25.37-.47.53-.67l7.36-9.34c1.7-2.15,3.58-3.33,5.66-3.54,2.08-.21,4.19.53,6.32,2.21,2.15,1.7,3.36,3.58,3.62,5.67.26,2.08-.45,4.2-2.15,6.35l-7.97,10.11c-.31.39-.51.74-.61,1.05-.1.31.08.65.54,1.01l.4.31-.21.27-4.96-3.91.21-.27c.28.22.52.39.7.51.18.12.36.17.53.16.17-.01.34-.09.52-.24.18-.15.38-.38.62-.68l8.01-10.17c1.29-1.64,1.93-3.23,1.92-4.78,0-1.55-.86-2.99-2.57-4.34-1.57-1.23-3.13-1.75-4.69-1.54-1.56.21-2.95,1.09-4.17,2.64l-7.61,9.66c-.27.34-.5.64-.71.91-.21.27-.35.52-.41.76s-.03.49.09.74c.12.25.37.53.74.82l-.21.27-4.24-3.34.21-.27.4.31Z"/>
        <path d="M71.3,222.96c-.55,1.2-1.01,2.32-1.38,3.36-.37,1.04-.67,2.08-.89,3.1-.22,1.03-.37,2.08-.47,3.15-.09,1.07-.14,2.24-.15,3.5l1.63,1.83,6.6-5.72c.29-.25.51-.47.65-.65.14-.18.22-.35.23-.51.01-.16-.05-.33-.18-.52-.13-.19-.32-.42-.55-.69l.26-.22,4.05,4.67-.26.22c-.22-.26-.42-.45-.58-.6-.17-.14-.33-.22-.49-.23-.16-.01-.33.04-.52.16-.18.11-.42.3-.71.55l-14.35,12.43c-.27.24-.48.44-.63.62-.15.17-.23.34-.24.5-.01.16.04.33.16.52.12.19.28.41.51.66l-.26.22-5.32-6.14c-.65-.75-1.2-1.55-1.64-2.38-.44-.83-.71-1.67-.81-2.51-.1-.84,0-1.67.31-2.49.31-.82.89-1.6,1.75-2.34.65-.56,1.32-.94,2.02-1.12s1.39-.21,2.08-.09c.69.12,1.37.36,2.03.71.67.35,1.29.78,1.88,1.29-.02-.85-.02-1.56,0-2.12.02-.56.07-1.07.13-1.53.07-.46.14-.93.23-1.39.09-.47.19-1.02.3-1.65.13-.71.33-1.46.61-2.23.27-.77.53-1.5.77-2.17.24-.67.43-1.26.56-1.77.13-.5.11-.86-.07-1.06l.26-.22,2.49,2.88ZM68.81,238.97l-1.07-1.23c-.53-.62-1.11-1.17-1.73-1.67-.62-.49-1.28-.86-1.98-1.09s-1.41-.29-2.14-.17c-.73.12-1.46.5-2.18,1.12-.63.55-1.05,1.12-1.25,1.72-.2.6-.25,1.19-.13,1.8.12.6.35,1.2.72,1.79.36.59.77,1.15,1.23,1.68.13.15.28.33.45.51.15.17.31.34.49.52.18.17.38.31.58.42.21.1.42.15.63.15l6.39-5.54Z"/>
        <path d="M53.08,187.77l5.5,14.48-.32.12c-.25-.66-.5-1.04-.74-1.14-.24-.1-.7-.02-1.38.23l-17.75,6.74c-.68.26-1.07.5-1.19.74-.11.24-.05.69.2,1.34l-.32.12-5.38-14.16,3.26-1.27.17.44c-.76.41-1.16.85-1.19,1.31-.03.46.09,1.06.38,1.8l2.44,6.42c.14.36.25.55.35.58.09.02.31-.03.65-.16l7.27-2.76-2.45-6.45c-.13-.34-.26-.63-.38-.87-.13-.24-.28-.42-.44-.54-.17-.12-.37-.18-.61-.18-.24,0-.55.04-.93.13l-.16-.41,4.8-1.82.16.41c-.36.19-.64.36-.82.53-.18.17-.3.35-.35.55-.06.2-.05.43,0,.69.06.26.16.56.3.92l2.45,6.45,8.29-3.15c.19-.07.31-.18.36-.34.05-.15.06-.31.02-.48-.04-.17-.1-.34-.18-.51-.08-.18-.14-.33-.19-.45l-1.99-5.24c-.19-.51-.39-.94-.58-1.29-.19-.35-.43-.64-.71-.87-.28-.23-.61-.41-.98-.53-.37-.12-.84-.2-1.41-.23l-.19-.51,4.08-.64Z"/>
        <path d="M26.75,170.11c.31.16.66.29,1.07.37l22.66,4.28.25,1.37-19.49,12.51c-.39.26-.69.54-.9.84-.21.3-.28.69-.22,1.16l-.33.06-1.09-5.91.33-.06c.04.22.09.43.13.63.05.2.12.36.23.48.1.12.24.18.4.19.16,0,.37-.07.61-.23l15.91-9.98-17.59-3.25c-.67-.13-1.14-.1-1.4.09-.26.19-.35.64-.27,1.36l-.33.06-.89-4.81.33-.06c.08.45.28.75.58.91Z"/>
        <path d="M48.49,149.36l.18,15.49h-.34c0-.7-.11-1.14-.3-1.32-.19-.18-.65-.26-1.38-.26l-18.99.22c-.73,0-1.18.1-1.37.29-.19.18-.28.63-.27,1.33h-.34s-.18-15.15-.18-15.15l3.5-.08v.48c-.85.12-1.38.4-1.56.82-.19.42-.28,1.03-.27,1.82l.08,6.86c0,.39.05.61.13.66.08.06.3.08.66.08l7.78-.09-.08-6.9c0-.36-.03-.68-.06-.95-.04-.27-.11-.49-.23-.66s-.29-.3-.51-.38-.53-.15-.92-.19v-.44s5.12-.06,5.12-.06v.44c-.4.05-.72.12-.94.21-.23.09-.4.23-.52.4-.12.17-.2.39-.23.65-.03.26-.04.58-.04.97l.08,6.9,8.87-.1c.2,0,.36-.07.46-.19.1-.13.16-.27.18-.44.02-.17.02-.35.01-.54-.01-.19-.02-.36-.02-.49l-.07-5.61c0-.54-.04-1.01-.1-1.41-.06-.4-.18-.75-.37-1.07-.19-.31-.43-.6-.74-.84-.31-.25-.72-.48-1.25-.7v-.54s4.05.8,4.05.8Z"/>
        <path d="M50.97,131.95c-1.27.34-2.43.71-3.46,1.09-1.04.38-2.02.82-2.95,1.31-.93.49-1.83,1.04-2.71,1.66-.88.61-1.81,1.32-2.79,2.13l-.36,2.42,8.62,1.4c.38.06.69.09.92.08.23,0,.41-.06.54-.15.13-.09.23-.25.28-.47.06-.22.12-.51.18-.87l.34.05-.99,6.1-.34-.05c.05-.34.08-.61.08-.83,0-.22-.04-.39-.14-.52-.09-.13-.24-.23-.45-.3-.21-.07-.5-.13-.88-.19l-18.74-3.04c-.36-.06-.65-.09-.88-.09-.23,0-.41.04-.54.14-.13.09-.23.24-.3.45-.07.21-.13.48-.18.81l-.34-.05,1.3-8.01c.16-.98.42-1.91.78-2.78.36-.87.83-1.62,1.41-2.23.58-.62,1.29-1.07,2.11-1.36.83-.29,1.8-.35,2.92-.16.85.14,1.57.41,2.15.83.59.42,1.05.93,1.4,1.54.35.61.6,1.28.76,2.02.16.74.23,1.49.22,2.27.64-.56,1.19-1.01,1.63-1.35.45-.34.87-.63,1.26-.88.4-.25.8-.48,1.22-.71.42-.23.9-.51,1.46-.83.63-.36,1.33-.68,2.1-.97.77-.29,1.49-.56,2.16-.8.67-.25,1.24-.48,1.71-.7.47-.22.73-.47.77-.73l.33.05-.61,3.76ZM37.09,140.29l.26-1.61c.13-.8.19-1.6.17-2.4-.02-.79-.16-1.53-.43-2.22-.27-.69-.68-1.27-1.25-1.75-.56-.48-1.32-.8-2.25-.95-.83-.13-1.54-.09-2.12.14-.59.23-1.07.58-1.46,1.05-.39.48-.69,1.04-.91,1.69s-.39,1.33-.5,2.02c-.03.2-.07.42-.11.67-.04.22-.06.46-.08.71-.02.25,0,.49.06.71.06.23.15.42.29.58l8.35,1.35Z"/>
        <path d="M36.91,105.5l8.23,10.37,7.76,2.61c.39.13.7.2.93.22.23.02.42-.03.57-.15.15-.12.27-.29.37-.52.1-.23.21-.52.34-.89l.32.11-2.17,6.44-.32-.11c.12-.37.21-.67.27-.91.06-.24.06-.45.01-.62-.05-.17-.17-.32-.37-.45-.2-.13-.49-.25-.87-.38l-7.66-2.58-12.92,3.57c-.52.13-.94.28-1.26.44-.32.16-.57.49-.77,1l-.32-.11,2.05-6.08.32.11c-.09.26-.15.49-.19.71-.04.21-.03.39.02.53.05.14.16.23.34.28.18.05.44.02.78-.08l10.79-2.78-7.06-8.72c-.19-.23-.36-.36-.51-.39-.16-.03-.3,0-.42.07-.12.08-.23.2-.32.37-.09.17-.17.35-.24.55l-.32-.11,1.69-5.02.32.11c-.2.89,0,1.7.62,2.43Z"/>
        <path d="M63.84,95.89c.34.23.61.38.81.46.2.08.39.1.56.05.17-.05.33-.16.47-.34.15-.18.32-.41.52-.71l.28.19-3.48,5.19-.28-.19c.19-.28.33-.52.42-.72.09-.2.12-.37.09-.53-.03-.16-.13-.31-.29-.46-.16-.15-.4-.33-.72-.54l-15.77-10.57c-.3-.2-.56-.35-.76-.45-.21-.1-.39-.13-.55-.1-.16.03-.31.13-.46.29-.15.16-.32.38-.51.66l-.28-.19,4.27-6.38c.57-.85,1.22-1.6,1.95-2.27.73-.67,1.52-1.17,2.36-1.51.84-.34,1.72-.46,2.64-.38.92.09,1.87.45,2.82,1.1,1.02.68,1.75,1.45,2.19,2.31.45.86.67,1.76.68,2.71,0,.95-.18,1.9-.55,2.86-.37.96-.87,1.89-1.49,2.78l-1.61,2.28,6.66,4.46ZM55.77,90.48l1.4-1.97c.5-.7.87-1.4,1.13-2.08.26-.69.36-1.35.31-2-.04-.64-.26-1.26-.64-1.86-.38-.59-.95-1.15-1.72-1.67-.7-.47-1.38-.74-2.06-.83-.68-.09-1.32-.02-1.92.21-.6.23-1.17.57-1.7,1.05-.53.47-1.02,1.03-1.45,1.67-.11.17-.24.33-.39.49-.15.16-.29.33-.42.51-.14.18-.25.37-.36.56-.1.19-.15.38-.14.58l7.96,5.33Z"/>
        <path d="M72.89,86.66l-.26-.22c.25-.29.44-.54.58-.73.14-.2.21-.38.22-.55.01-.17-.05-.34-.2-.53-.14-.18-.37-.41-.68-.67l-14.43-12.35c-.31-.27-.57-.45-.77-.57-.2-.11-.39-.15-.55-.11-.17.04-.33.14-.51.3-.17.17-.38.4-.63.69l-.26-.22,4.29-5.01.26.22c-.25.29-.44.54-.58.73-.14.19-.21.38-.22.55-.01.17.05.35.2.53.14.18.37.41.68.67l14.43,12.35c.31.26.56.45.77.57.2.11.39.15.55.11.17-.04.33-.14.51-.3.17-.17.38-.39.63-.69l.26.22-4.29,5.01Z"/>
        <path d="M91.21,68.41l-11.58,10.29-.23-.25c.52-.47.79-.83.8-1.1,0-.26-.23-.67-.71-1.21l-12.61-14.19c-.48-.54-.85-.82-1.12-.85-.26-.02-.66.2-1.18.66l-.23-.25,11.33-10.06,2.35,2.59-.35.32c-.66-.57-1.2-.79-1.65-.65-.44.14-.96.47-1.55.99l-5.13,4.56c-.29.26-.43.43-.42.53.01.1.14.28.38.55l5.17,5.81,5.15-4.58c.27-.24.5-.46.68-.67.18-.21.3-.41.35-.6.05-.2.04-.41-.05-.64s-.24-.5-.46-.82l.33-.29,3.41,3.83-.33.29c-.31-.27-.57-.47-.79-.58-.22-.11-.43-.15-.64-.13-.21.02-.42.1-.64.25-.22.15-.47.35-.76.61l-5.15,4.58,5.89,6.63c.14.15.28.23.45.22.16,0,.31-.06.45-.15.14-.09.28-.21.42-.35.14-.14.26-.25.36-.34l4.19-3.72c.41-.36.74-.69,1-1,.26-.3.45-.63.56-.98.12-.35.17-.72.15-1.11-.02-.39-.11-.86-.29-1.4l.41-.36,2.05,3.59Z"/>
        <path d="M106.18,58.57c-.9,1.03-1.95,1.92-3.17,2.66-1.55.94-3.08,1.53-4.59,1.77-1.51.24-2.96.17-4.35-.2-1.39-.37-2.69-1.05-3.89-2.03-1.2-.98-2.26-2.22-3.18-3.73-.88-1.45-1.47-2.94-1.76-4.47-.29-1.53-.29-3.02.01-4.46.3-1.44.9-2.79,1.8-4.03.9-1.25,2.09-2.32,3.58-3.23,1.02-.62,2.12-1.13,3.29-1.52.14-.03.32-.08.53-.14.21-.06.43-.12.66-.18.23-.06.44-.12.64-.19.2-.07.35-.14.47-.21.37-.22.49-.54.38-.95l.32-.19c.19.31.41.67.65,1.07.24.39.47.79.71,1.2.24.41.46.82.67,1.23.21.41.36.78.46,1.11-1.35-.69-2.61-1.07-3.79-1.14-1.18-.07-2.44.31-3.77,1.12-1.3.79-2.28,1.71-2.94,2.76-.66,1.05-1.06,2.16-1.18,3.32-.13,1.17-.02,2.37.33,3.62.35,1.25.88,2.46,1.59,3.64.74,1.22,1.59,2.27,2.54,3.14.96.88,1.99,1.52,3.09,1.92,1.11.4,2.28.54,3.51.41,1.24-.13,2.51-.59,3.83-1.39.46-.28.96-.6,1.49-.95.53-.35,1.04-.73,1.51-1.14.48-.41.91-.85,1.28-1.33.37-.48.65-1,.84-1.56l.42.42c-.42,1.4-1.08,2.61-1.98,3.65Z"/>
        <path d="M125.32,50.62l-14.42,5.65-.12-.32c.65-.26,1.03-.51,1.13-.75.1-.24.01-.7-.25-1.38l-6.93-17.68c-.27-.67-.52-1.07-.76-1.18-.24-.11-.69-.04-1.34.21l-.12-.32,14.11-5.53,1.31,3.25-.44.17c-.42-.76-.86-1.15-1.32-1.18-.46-.03-1.06.1-1.8.39l-6.39,2.5c-.36.14-.55.26-.57.35-.02.1.03.31.16.65l2.84,7.24,6.42-2.52c.34-.13.62-.26.87-.4.24-.13.42-.28.54-.45.12-.17.18-.37.18-.62,0-.24-.05-.55-.14-.93l.41-.16,1.87,4.78-.41.16c-.19-.36-.37-.63-.54-.81-.17-.18-.35-.29-.56-.35-.2-.05-.43-.05-.69.01-.26.06-.56.17-.92.31l-6.42,2.52,3.23,8.25c.07.19.19.31.34.36.15.05.31.05.48.01.17-.04.34-.1.51-.18.18-.08.33-.15.45-.2l5.22-2.05c.51-.2.93-.4,1.28-.59.35-.2.64-.44.87-.72.23-.28.4-.61.52-.99.12-.38.19-.85.21-1.41l.51-.2.68,4.07Z"/>
        <path d="M137.14,47.15c.36-.04.66-.09.89-.13.23-.05.41-.13.54-.25s.2-.29.23-.52c.03-.23.02-.55-.02-.96l-2.15-18.87c-.05-.41-.11-.72-.19-.94-.08-.22-.2-.37-.36-.46-.16-.08-.36-.12-.59-.12s-.54.03-.9.07l-.04-.34,7.93-.9c.99-.11,1.98-.14,2.97-.08.99.06,1.88.27,2.68.62.8.35,1.49.89,2.04,1.6.56.71.91,1.65,1.04,2.82.17,1.49-.1,2.66-.8,3.51-.7.86-1.74,1.52-3.12,2,.76.05,1.49.19,2.18.42.7.23,1.32.55,1.87.97s1.01.93,1.37,1.54.59,1.32.69,2.13c.14,1.19,0,2.22-.39,3.07-.39.85-.95,1.57-1.69,2.16-.73.58-1.58,1.04-2.56,1.37-.98.33-1.97.55-2.99.66l-8.61.98-.04-.34ZM140.46,34.19l3.24-.37c.7-.08,1.35-.23,1.97-.45.61-.22,1.14-.52,1.57-.91.43-.39.76-.87.96-1.44.21-.57.27-1.25.18-2.04-.09-.81-.33-1.47-.72-1.99-.39-.51-.86-.9-1.42-1.17s-1.18-.43-1.87-.49c-.69-.06-1.38-.05-2.08.03-.18.02-.41.04-.68.06-.27.02-.54.06-.81.11-.27.05-.52.13-.74.22-.23.09-.4.23-.52.4l.91,8.03ZM141.61,44.59c.14.21.32.36.56.45.24.09.49.13.77.13.27,0,.55-.01.82-.04.27-.03.51-.06.71-.08.77-.09,1.52-.24,2.27-.46.75-.22,1.41-.55,1.98-.98.57-.43,1-.96,1.3-1.6.3-.64.4-1.42.3-2.34-.12-1.06-.45-1.88-.98-2.45-.53-.58-1.17-1-1.92-1.25-.75-.26-1.57-.39-2.47-.4-.9-.01-1.77.03-2.6.12l-1.72.2.99,8.71Z"/>
        <path d="M172.11,46.43c-.46-1.23-.93-2.35-1.41-3.35-.48-1-1-1.93-1.58-2.81-.58-.88-1.21-1.73-1.91-2.55-.69-.82-1.49-1.68-2.38-2.58l-2.44-.13-.59,8.71c-.03.38-.02.69,0,.92.03.23.1.4.2.52.11.12.27.2.5.24.22.04.52.07.88.09l-.02.34-6.17-.42.02-.34c.34.02.62.02.83,0,.22-.02.39-.08.51-.19.12-.11.21-.26.25-.48.05-.21.09-.51.11-.9l1.28-18.95c.02-.36.03-.66,0-.88-.02-.23-.08-.4-.19-.52-.11-.12-.26-.2-.48-.25-.21-.05-.49-.08-.83-.11l.02-.34,8.1.55c1,.07,1.94.24,2.84.51.9.28,1.69.68,2.35,1.2.67.52,1.19,1.18,1.55,1.98.37.8.51,1.76.44,2.89-.06.86-.27,1.6-.63,2.22-.36.62-.83,1.14-1.4,1.54-.57.4-1.22.72-1.94.94-.72.22-1.47.37-2.24.43.62.59,1.12,1.08,1.5,1.5.38.41.71.8.99,1.17.28.37.56.75.83,1.15.27.39.59.85.96,1.38.41.6.8,1.26,1.16,2,.36.74.69,1.43,1,2.08.31.65.59,1.19.86,1.64.27.45.53.68.8.7l-.02.34-3.8-.26ZM162.5,33.39l1.63.11c.81.05,1.61.04,2.4-.06.79-.09,1.51-.31,2.17-.64.66-.33,1.2-.8,1.63-1.41.43-.61.67-1.39.74-2.33.06-.84-.06-1.54-.34-2.1s-.67-1.02-1.18-1.36c-.51-.34-1.1-.59-1.77-.75-.67-.16-1.36-.26-2.06-.31-.2-.01-.43-.03-.68-.05-.23-.02-.46-.02-.71-.01-.25,0-.49.05-.71.12-.22.08-.4.19-.55.34l-.57,8.44Z"/>
        <path d="M179.06,47.63l.07-.33c.38.08.68.14.92.17.24.03.43,0,.59-.06.15-.07.28-.21.37-.42.09-.21.18-.52.27-.91l4.1-18.54c.09-.4.13-.71.14-.94s-.05-.41-.16-.54c-.11-.13-.28-.23-.51-.3-.23-.07-.53-.15-.91-.23l.07-.33,6.43,1.42-.07.33c-.38-.08-.68-.14-.92-.17-.24-.03-.43,0-.59.06s-.28.21-.37.42-.18.52-.27.91l-4.1,18.54c-.09.4-.13.71-.14.94,0,.23.05.41.16.54.11.13.28.23.51.3.23.07.53.15.9.24l-.07.33-6.44-1.42Z"/>
        <path d="M215.85,35.94c-.27,0-.49.08-.66.23-.17.15-.32.37-.45.66-.13.29-.27.64-.43,1.04l-7.48,18.89-1.61-.64-5.49-23.14-6.09,15.38c-.16.4-.29.74-.39,1.03-.1.29-.14.55-.12.77.02.23.13.43.33.6.2.18.51.35.93.51l-.12.32-5.09-2.01.12-.32c.44.18.8.27,1.06.27.26,0,.49-.06.66-.19.18-.14.32-.35.45-.63.12-.28.27-.63.43-1.05l6.79-17.15c-.02-.32-.03-.59-.05-.8-.01-.21-.05-.39-.12-.52-.07-.14-.17-.25-.32-.35-.15-.09-.38-.2-.69-.33l.12-.32,4.17,1.65c.78,3.69,1.61,7.35,2.5,10.96.88,3.61,1.71,7.27,2.49,10.96l5.78-14.59c.17-.42.3-.78.41-1.08.11-.3.15-.56.13-.79-.02-.23-.13-.43-.34-.61-.21-.18-.53-.36-.98-.53l.12-.32,5.12,2.03-.12.32c-.44-.18-.8-.26-1.07-.26Z"/>
        <path d="M233.97,59.61c-.39-.01-.7.17-.95.55l-5.07,7.64c-.21.08-.47.1-.77.08-.3-.02-.61-.06-.92-.12-.31-.06-.62-.14-.91-.23-.29-.1-.54-.17-.74-.23-2.17-.7-4.06-1.69-5.66-2.96-1.61-1.27-2.8-2.73-3.59-4.4-.79-1.66-1.1-3.47-.94-5.43.16-1.96.92-3.97,2.28-6.03.94-1.42,2.04-2.57,3.32-3.47,1.27-.89,2.63-1.5,4.07-1.8,1.44-.31,2.92-.32,4.44-.03,1.52.29,3,.91,4.43,1.86,1.11.74,2.16,1.62,3.13,2.65.02.04.12.16.29.36s.35.4.55.61c.2.21.46.49.77.84.14.07.31.1.5.11.19,0,.34-.06.46-.2l.34.23c-.14.21-.34.5-.61.88s-.55.77-.84,1.18c-.29.4-.58.78-.86,1.12-.28.34-.52.57-.71.69,0,.05,0,.1,0,.14s0,.09,0,.14l.02-.27c.09-1.41-.17-2.69-.78-3.84-.61-1.15-1.51-2.12-2.7-2.91-1.3-.86-2.58-1.38-3.84-1.55s-2.47-.06-3.63.32c-1.17.38-2.25,1.01-3.26,1.87-1.01.87-1.91,1.89-2.7,3.08-.74,1.11-1.3,2.29-1.67,3.54-.38,1.24-.46,2.55-.25,3.91.2,1.33.67,2.49,1.4,3.48s1.64,1.84,2.74,2.57c.23.15.55.34.99.57.43.23.88.44,1.34.62.46.18.92.32,1.37.4.45.08.82.04,1.12-.12l4.47-6.74c.21-.32.31-.59.3-.82-.01-.23-.09-.43-.25-.61-.15-.18-.34-.34-.58-.48-.23-.14-.47-.29-.72-.46l.26-.4,5.63,3.74-.19.28c-.34-.22-.7-.34-1.09-.35ZM235.98,53.77c0-.05,0-.1,0-.14s0-.09,0-.14l-.02.27Z"/>
        <path d="M230.07,71.43c-.15,0-.29.06-.42.19l-.3-.28,3.29-3.72.12-.03.22.21c-.37.99-.51,1.93-.42,2.84.1.9.33,1.71.72,2.43.38.72.87,1.33,1.48,1.85.61.51,1.26.87,1.96,1.06.7.2,1.4.21,2.1.05.7-.16,1.33-.54,1.89-1.13.67-.71,1.04-1.48,1.1-2.32.06-.84,0-1.73-.22-2.66-.21-.93-.49-1.9-.84-2.9-.35-1-.6-1.99-.77-2.97-.16-.98-.16-1.95,0-2.9.17-.95.66-1.86,1.49-2.73.61-.64,1.28-1.08,2.03-1.33.75-.25,1.51-.34,2.3-.28.79.06,1.55.26,2.3.61.75.35,1.42.8,2.01,1.36.35.33.66.68.94,1.06.28.38.54.77.78,1.18.02.05.08.16.19.34.11.18.23.38.35.59.13.21.24.41.35.59s.17.28.19.29c.31.23.61.22.91-.02l.27.26c-.51.67-1.04,1.35-1.59,2.05-.55.7-1.13,1.33-1.74,1.91l-.27-.26c.38-.83.55-1.65.51-2.46-.04-.82-.22-1.58-.53-2.28-.32-.7-.75-1.32-1.31-1.85-.54-.51-1.13-.89-1.77-1.12-.64-.23-1.29-.29-1.95-.16-.66.12-1.26.47-1.81,1.05-.42.44-.67.95-.75,1.51-.08.56-.09,1.14-.02,1.73.1.75.25,1.5.45,2.25.2.75.42,1.49.66,2.22l-.1-.24c.28.79.51,1.59.7,2.4.19.8.29,1.6.29,2.38,0,.79-.12,1.55-.38,2.28-.26.74-.71,1.44-1.35,2.12-.67.71-1.42,1.19-2.26,1.44-.83.25-1.68.33-2.54.24-.86-.1-1.7-.34-2.51-.74-.81-.39-1.54-.9-2.18-1.5-.69-.65-1.27-1.36-1.74-2.11-.47-.76-.95-1.54-1.43-2.34-.13-.09-.27-.14-.42-.14Z"/>
        <path d="M275.21,95l-13.23-.38-7,4.25c-.35.21-.61.4-.77.57-.17.17-.25.34-.25.53,0,.19.05.4.16.62.11.22.26.5.46.83l-.29.18-3.53-5.81.29-.18c.2.33.37.59.52.8.15.2.3.34.47.41.16.07.36.07.58,0,.22-.07.51-.21.86-.42l6.91-4.2,5.59-12.19c.23-.49.39-.9.48-1.24.08-.34,0-.75-.27-1.23l.29-.18,3.33,5.49-.29.18c-.14-.23-.28-.43-.42-.6-.14-.17-.28-.27-.42-.32-.14-.05-.28-.02-.43.08-.15.1-.3.32-.44.65l-4.82,10.05,11.22.21c.29,0,.5-.04.63-.14.12-.1.2-.23.21-.37.02-.14,0-.31-.08-.49-.07-.18-.16-.36-.26-.53l.29-.18,2.75,4.53-.29.18c-.55-.73-1.3-1.09-2.26-1.09Z"/>
        <path d="M271.19,123.33c-1.51.07-2.94-.13-4.28-.6-1.34-.47-2.54-1.22-3.6-2.24-1.06-1.03-1.9-2.34-2.51-3.95-.62-1.63-.88-3.18-.78-4.65.1-1.47.5-2.83,1.17-4.07.68-1.24,1.61-2.34,2.8-3.29,1.19-.95,2.54-1.72,4.07-2.3,1.88-.72,3.63-1.06,5.25-1.02,1.61.04,3.07.35,4.38.95,1.3.59,2.42,1.4,3.35,2.43s1.62,2.17,2.09,3.42c.47,1.25.7,2.57.69,3.95,0,1.38-.29,2.73-.86,4.04-.57,1.31-1.45,2.52-2.63,3.62-1.19,1.11-2.71,2.02-4.58,2.73-1.52.58-3.04.91-4.55.98ZM277.88,117.81c1.05-.71,1.93-1.52,2.65-2.45.71-.93,1.19-1.96,1.44-3.09.25-1.14.12-2.36-.38-3.67-.51-1.33-1.23-2.34-2.17-3.02-.94-.68-1.98-1.13-3.13-1.35-1.15-.22-2.34-.23-3.58-.05-1.24.18-2.42.49-3.54.92s-2.21.99-3.27,1.68c-1.06.69-1.93,1.5-2.64,2.43-.7.92-1.17,1.95-1.4,3.08-.24,1.13-.1,2.36.41,3.7.5,1.31,1.22,2.32,2.15,3.01.93.7,1.97,1.15,3.12,1.37,1.15.21,2.34.23,3.58.05,1.24-.18,2.42-.49,3.54-.92,1.1-.42,2.18-.98,3.23-1.69Z"/>
        <path d="M290.98,144.59c-.05-.34-.19-.58-.41-.73-.22-.15-.47-.24-.75-.26-.28-.02-.58-.01-.89.04s-.59.09-.84.13l-11.74,1.86c-2.71.43-4.89.01-6.56-1.25-1.67-1.26-2.71-3.23-3.14-5.92-.43-2.71-.03-4.91,1.19-6.62,1.22-1.71,3.18-2.77,5.89-3.2l12.72-2.02c.49-.08.88-.2,1.17-.36.28-.16.38-.53.29-1.11l-.08-.5.34-.05.99,6.24-.34.05c-.06-.36-.11-.64-.17-.85-.06-.21-.15-.37-.28-.47-.13-.11-.31-.16-.54-.17-.23,0-.54.02-.92.08l-12.78,2.03c-2.06.33-3.61,1.06-4.66,2.2-1.05,1.14-1.4,2.78-1.06,4.93.31,1.97,1.11,3.41,2.4,4.31,1.29.91,2.91,1.21,4.85.9l12.15-1.93c.42-.07.8-.13,1.14-.18.34-.05.61-.15.81-.28.21-.14.35-.34.44-.6.08-.27.09-.63.01-1.1l.34-.05.85,5.33-.34.05-.08-.5Z"/>
        <path d="M290.26,170.63c-.01-.23-.07-.41-.17-.54s-.26-.23-.47-.3c-.21-.06-.51-.11-.89-.14l-14.45-1.24c-.9-.08-1.75-.25-2.55-.51-.8-.26-1.49-.63-2.07-1.11-.58-.48-1.03-1.09-1.33-1.82-.3-.73-.41-1.6-.32-2.62.02-.2.06-.46.13-.77.07-.31.18-.62.32-.91.14-.3.31-.55.51-.76.2-.21.43-.3.71-.28.29.02.57.09.82.21.25.11.42.32.51.62.11.37.04.65-.19.82-.23.17-.51.33-.84.46-.33.13-.64.28-.92.45-.29.17-.45.42-.47.76-.04.45.08.83.36,1.12.28.3.64.54,1.06.72.43.18.88.32,1.35.41.47.09.89.14,1.25.17l16.38,1.4c.38.03.68.04.9,0,.22-.03.39-.1.51-.21.12-.12.21-.28.27-.51.05-.22.09-.52.12-.88l.34.03-.54,6.33-.34-.03c.03-.36.04-.66.02-.88Z"/>
        <path d="M269.42,193.78c-1.28-.81-2.34-1.79-3.17-2.94-.83-1.15-1.39-2.45-1.67-3.9-.28-1.45-.21-3.01.2-4.68.42-1.69,1.1-3.11,2.02-4.26s2.02-2.03,3.29-2.66,2.66-.99,4.18-1.09c1.52-.1,3.07.05,4.65.44,1.96.49,3.58,1.21,4.89,2.16,1.3.95,2.32,2.05,3.05,3.28s1.18,2.54,1.35,3.91c.17,1.37.09,2.71-.24,4-.33,1.29-.9,2.51-1.69,3.64s-1.8,2.07-3.01,2.82c-1.21.75-2.62,1.24-4.23,1.47-1.61.23-3.38.1-5.31-.38-1.58-.39-3.01-1-4.29-1.81ZM278.07,193.08c1.27.02,2.46-.14,3.57-.49,1.11-.35,2.1-.92,2.95-1.72.85-.79,1.45-1.87,1.79-3.23.34-1.38.33-2.63-.05-3.72-.38-1.1-.98-2.06-1.8-2.9-.82-.83-1.79-1.53-2.91-2.09-1.12-.56-2.26-.98-3.43-1.27-1.17-.29-2.38-.45-3.64-.49s-2.45.12-3.55.48c-1.1.35-2.08.93-2.92,1.72-.84.79-1.43,1.88-1.78,3.27-.34,1.36-.33,2.6.04,3.7.37,1.11.96,2.08,1.78,2.91.82.83,1.79,1.53,2.91,2.09,1.12.56,2.26.98,3.43,1.27,1.14.28,2.35.44,3.61.46Z"/>
        <path d="M274.39,217.93l-7.13-11.15-7.45-3.39c-.37-.17-.67-.27-.9-.32-.23-.04-.42-.01-.58.09-.16.1-.3.26-.42.48-.12.22-.26.5-.42.85l-.31-.14,2.81-6.18.31.14c-.16.35-.28.64-.36.88-.08.23-.11.44-.08.62.03.18.14.34.32.48.18.14.46.3.83.47l7.36,3.35,13.22-2.24c.54-.08.97-.18,1.3-.31.33-.12.62-.43.86-.91l.31.14-2.66,5.84-.31-.14c.11-.25.2-.48.26-.69.06-.21.07-.39.03-.53-.04-.14-.14-.24-.31-.31-.17-.06-.43-.07-.78,0l-11.02,1.67,6.14,9.4c.16.25.32.39.47.44.15.04.3.03.42-.03.13-.07.25-.18.36-.34.11-.16.21-.33.29-.52l.31.14-2.19,4.82-.31-.14c.29-.86.17-1.69-.37-2.48Z"/>
      </g>
      <g>
        <path d="M166.89,158h-17.64v-.94c.58,0,1.09-.02,1.55-.07.46-.05.83-.17,1.12-.36.29-.19.47-.49.54-.9.07-.41-.04-.95-.32-1.62l-3.53-9.22h-18.22l-3.46,9.07c-.24.67-.34,1.21-.29,1.62.05.41.2.72.47.94.26.22.63.36,1.12.43.48.07,1.01.11,1.58.11v.94h-13.03v-.94c.91-.14,1.61-.49,2.09-1.04.48-.55.89-1.23,1.22-2.05l18.29-45.79h6.55l18.79,46.08c.29.67.68,1.31,1.19,1.91.5.6,1.16.9,1.98.9v.94ZM139.38,120.49l-7.13,19.22h14.47l-7.34-19.22Z"/>
        <path d="M183.46,146.38h-18.58v-.94c.62-.05,1.16-.1,1.62-.14.46-.05.83-.17,1.12-.36.29-.19.49-.48.61-.86.12-.38.18-.94.18-1.66v-41.4c0-1.34-.29-2.17-.86-2.48-.58-.31-1.46-.47-2.66-.47v-.94h35.28l.07,11.23h-1.01c-.38-2.5-1.24-4.16-2.56-5-1.32-.84-3.21-1.26-5.65-1.26h-9.36c-.86,0-1.49.08-1.87.25-.38.17-.58.73-.58,1.69v14.54h8.57c2.06,0,3.53-.42,4.39-1.26.86-.84,1.41-2.27,1.66-4.28h1.01v16.27h-1.01c-.19-2.06-.72-3.54-1.58-4.43-.86-.89-2.35-1.33-4.46-1.33h-8.57v18.94c0,.77.11,1.36.32,1.76.22.41.5.7.86.86.36.17.8.26,1.33.29.53.02,1.1.04,1.73.04v.94Z"/>
        <path d="M171.74,163.94h13.61v.94c-1.54.1-2.45.47-2.74,1.12-.29.65-.43,1.72-.43,3.2v25.63c0,6.43-1.61,11.28-4.82,14.54-3.22,3.27-8.04,4.9-14.47,4.9-2.93,0-5.63-.34-8.1-1.01-2.47-.67-4.6-1.72-6.37-3.13-1.78-1.42-3.17-3.24-4.18-5.47-1.01-2.23-1.51-4.93-1.51-8.1v-28.73c0-1.25-.28-2.08-.83-2.48-.55-.41-1.38-.56-2.48-.47v-.94h17.78v.94c-1.2.05-2.14.22-2.81.5s-1.01,1.13-1.01,2.52v27.43c0,1.83.16,3.54.47,5.15.31,1.61.86,3.02,1.66,4.25s1.87,2.2,3.24,2.92,3.08,1.08,5.15,1.08c2.21,0,4.07-.37,5.58-1.12,1.51-.74,2.72-1.76,3.64-3.06.91-1.3,1.56-2.81,1.94-4.54.38-1.73.58-3.58.58-5.54v-25.34c0-1.73-.23-2.88-.68-3.46-.46-.58-1.52-.84-3.2-.79v-.94Z"/>
      </g>
    </g>
  </g>
</svg>