<?xml version="1.0" encoding="UTF-8"?>
<svg id="_레이어_2" data-name="레이어 2" xmlns="http://www.w3.org/2000/svg" viewBox="0 0 55.04 6.17">
  <g id="_레이어_1-2" data-name="레이어 1">
    <g>
      <path d="M4.34,6.07v-.09c.13,0,.23-.02.3-.07.06-.05.06-.15,0-.29l-.54-1.33H1.46l-.49,1.23c-.06.15-.08.27-.06.35.03.08.13.12.32.12v.09H0v-.09c.07,0,.13-.03.18-.06.05-.04.09-.08.13-.12.04-.05.07-.1.1-.16.03-.06.05-.12.07-.18L2.73.07h.48l2.33,5.62c.06.16.19.25.38.29v.09h-1.58ZM2.79.99l-1.16,2.86h2.32L2.79.99Z"/>
      <path d="M10.77,6.07h-3.96v-.09c.09,0,.17,0,.22-.01.06,0,.1-.03.13-.06.03-.03.05-.07.06-.13,0-.06.01-.13.01-.23V.64c0-.09,0-.17-.01-.23,0-.06-.03-.1-.06-.13-.03-.03-.07-.05-.13-.06-.06,0-.13-.01-.22-.01v-.09h1.61v.09c-.09,0-.17,0-.23.01-.06,0-.1.03-.14.06-.03.03-.05.07-.07.13-.01.06-.02.13-.02.23v4.83c0,.05.02.09.05.12.03.03.07.04.11.05.04,0,.09,0,.14,0,.05,0,.09,0,.13,0h1.28c.16,0,.3,0,.42-.02.12-.01.23-.04.32-.08.09-.04.18-.11.25-.2.07-.09.14-.21.21-.36l.11.03-.25,1.06Z"/>
      <path d="M15.46,6.07h-3.96v-.09c.09,0,.17,0,.22-.01.06,0,.1-.03.13-.06.03-.03.05-.07.06-.13,0-.06.01-.13.01-.23V.64c0-.09,0-.17-.01-.23,0-.06-.03-.1-.06-.13-.03-.03-.07-.05-.13-.06-.06,0-.13-.01-.22-.01v-.09h1.61v.09c-.09,0-.17,0-.23.01-.06,0-.1.03-.14.06-.03.03-.05.07-.07.13-.01.06-.02.13-.02.23v4.83c0,.05.02.09.05.12.03.03.07.04.11.05.04,0,.09,0,.14,0,.05,0,.09,0,.13,0h1.28c.16,0,.3,0,.42-.02.12-.01.23-.04.32-.08.09-.04.18-.11.25-.2.07-.09.14-.21.21-.36l.11.03-.25,1.06Z"/>
      <path d="M24.21,4.29c-.12.37-.3.7-.54.98-.24.28-.53.5-.87.66-.35.16-.74.24-1.18.24s-.85-.08-1.19-.24c-.35-.16-.64-.38-.87-.66-.24-.28-.42-.6-.54-.98-.12-.37-.18-.77-.18-1.19,0-.52.08-.97.24-1.36.16-.39.37-.71.63-.97s.56-.45.89-.58C20.93.06,21.27,0,21.61,0c.35,0,.68.07,1.02.2.33.13.63.32.89.58.26.26.47.58.63.97.16.39.24.84.24,1.36,0,.42-.06.82-.18,1.19ZM23.49,2.17c-.07-.32-.19-.61-.35-.86-.16-.26-.36-.47-.61-.63-.25-.16-.56-.25-.92-.25s-.68.08-.93.25c-.25.16-.46.37-.61.63-.16.26-.27.54-.34.86-.07.32-.11.63-.11.94s.04.62.11.94c.07.32.18.61.34.86.16.25.36.46.61.62.25.16.56.24.93.24s.67-.08.93-.24c.25-.16.46-.37.62-.63.16-.26.27-.54.34-.86.07-.32.11-.63.11-.94s-.04-.62-.11-.93Z"/>
      <path d="M28.88,1.03c-.02-.11-.04-.2-.08-.26-.04-.06-.08-.11-.13-.14-.05-.03-.12-.05-.19-.06-.08,0-.17-.01-.27-.01h-1.72c-.1,0-.16.01-.17.03-.01.02-.02.08-.02.17v2.01h1.68c.09,0,.18,0,.25-.01.07,0,.13-.03.17-.06.04-.03.08-.07.11-.13.03-.06.05-.14.06-.24h.11v1.32h-.11c-.02-.2-.07-.33-.15-.38-.08-.05-.23-.07-.43-.07h-1.68v2.36c0,.1.01.18.02.23,0,.06.03.1.06.13.03.03.07.05.13.06.06,0,.13.01.23.01v.09h-1.61v-.09c.09,0,.17,0,.22-.01.06,0,.1-.03.13-.06.03-.03.05-.07.06-.13,0-.06.01-.13.01-.23V.64c0-.09,0-.17-.01-.23,0-.06-.03-.1-.05-.13-.03-.03-.07-.05-.12-.06-.06,0-.13-.01-.22-.01v-.09h3.87v.9s-.11,0-.11,0Z"/>
      <path d="M37.03.57l-1.86,2.87v2.11c0,.11,0,.19.02.25.01.06.04.1.08.13.04.03.09.04.16.05.06,0,.15,0,.25,0v.09h-1.75v-.09c.1,0,.18,0,.25,0,.06,0,.12-.02.15-.05.04-.03.06-.07.08-.13.01-.06.02-.14.02-.25v-2.09l-1.94-2.87c-.08-.12-.15-.21-.21-.27-.06-.06-.17-.1-.31-.11v-.09h1.66v.09c-.07,0-.13,0-.19.01-.06,0-.1.02-.13.05-.03.02-.04.06-.04.11,0,.05.03.11.08.18l1.57,2.41,1.55-2.45c.04-.06.06-.12.05-.16,0-.04-.02-.07-.05-.1-.03-.02-.07-.04-.12-.05-.05,0-.1-.01-.15-.01v-.09h1.37v.09c-.23.02-.42.14-.54.35Z"/>
      <path d="M42.76,4.29c-.12.37-.3.7-.54.98-.24.28-.53.5-.87.66-.35.16-.74.24-1.18.24s-.85-.08-1.19-.24c-.35-.16-.64-.38-.87-.66-.24-.28-.42-.6-.54-.98-.12-.37-.18-.77-.18-1.19,0-.52.08-.97.24-1.36.16-.39.37-.71.63-.97s.56-.45.89-.58C39.48.06,39.82,0,40.16,0c.35,0,.68.07,1.02.2.33.13.63.32.89.58.26.26.47.58.63.97.16.39.24.84.24,1.36,0,.42-.06.82-.18,1.19ZM42.05,2.17c-.07-.32-.19-.61-.35-.86-.16-.26-.36-.47-.61-.63-.25-.16-.56-.25-.92-.25s-.68.08-.93.25c-.25.16-.46.37-.61.63-.16.26-.27.54-.34.86-.07.32-.11.63-.11.94s.04.62.11.94c.07.32.18.61.34.86.16.25.36.46.61.62.25.16.56.24.93.24s.67-.08.93-.24c.25-.16.46-.37.62-.63.16-.26.27-.54.34-.86.07-.32.11-.63.11-.94s-.04-.62-.11-.93Z"/>
      <path d="M48.9.21c-.09,0-.16.02-.2.07-.05.05-.08.11-.1.18-.02.07-.03.15-.03.23v3.29c0,.71-.19,1.25-.58,1.62-.39.37-.93.56-1.64.56s-1.25-.19-1.64-.57c-.39-.38-.58-.92-.58-1.63V.64c0-.13-.01-.23-.04-.31-.03-.08-.12-.12-.27-.12h-.13v-.09h1.63v.09c-.09,0-.17,0-.22,0-.06,0-.1.02-.13.05-.03.03-.05.07-.07.13-.01.06-.02.14-.02.24v3.34c0,.54.12.96.37,1.28.25.31.65.47,1.21.47.51,0,.91-.15,1.2-.44.28-.29.43-.69.43-1.2V.62c0-.09-.01-.16-.04-.22s-.07-.1-.14-.14c-.06-.03-.16-.05-.28-.05v-.09h1.39v.09h-.13Z"/>
      <path d="M54.06,6.07c-.14-.31-.28-.59-.42-.84-.14-.25-.29-.48-.46-.7-.16-.22-.34-.42-.54-.62-.19-.2-.41-.41-.66-.62h-.63v2.26c0,.1,0,.18.02.24.01.06.03.1.06.13.03.03.07.05.13.05.06,0,.13,0,.23,0v.09h-1.6v-.09c.09,0,.16,0,.21-.01.06,0,.1-.03.13-.06s.05-.07.06-.13c0-.06.01-.13.01-.23V.64c0-.09,0-.17-.01-.23,0-.06-.03-.1-.06-.13s-.07-.05-.13-.06c-.06,0-.13-.01-.21-.01v-.09h2.1c.26,0,.5.03.74.08.24.06.45.14.63.27.18.12.33.28.43.48.11.2.16.44.16.74,0,.22-.04.42-.12.58-.08.17-.19.31-.33.42-.14.11-.3.21-.48.28-.18.07-.37.12-.57.15.17.14.31.26.41.36.11.1.2.19.28.29s.16.18.23.28c.08.1.17.21.27.34.12.15.23.31.33.5s.2.36.29.52c.09.16.17.3.25.41.08.11.15.17.22.17v.09h-.98ZM51.36,2.87h.42c.21,0,.42-.02.62-.06.2-.04.38-.11.55-.2.16-.1.3-.23.39-.39.1-.16.15-.37.15-.61,0-.22-.04-.39-.12-.54-.08-.14-.19-.25-.33-.33-.14-.08-.29-.13-.47-.16-.18-.03-.35-.04-.54-.04h-.18c-.06,0-.12,0-.18,0-.06,0-.12.02-.18.04-.06.02-.1.06-.14.1v2.18Z"/>
    </g>
  </g>
</svg>