<?xml version="1.0" encoding="UTF-8"?>
<svg id="_레이어_2" data-name="레이어 2" xmlns="http://www.w3.org/2000/svg" viewBox="0 0 301.2 33.77">
  <g id="_레이어_1-2" data-name="레이어 1">
    <g>
      <path d="M23.76,33.19v-.48c.74,0,1.28-.14,1.63-.41.35-.27.35-.81,0-1.61l-2.98-7.3H7.97l-2.69,6.72c-.35.83-.46,1.47-.31,1.92.14.45.73.67,1.75.67v.48H0v-.48c.38-.03.71-.14.98-.34.27-.19.51-.42.72-.67.21-.26.38-.54.53-.86.14-.32.28-.64.41-.96L14.93.36h2.64l12.77,30.77c.35.86,1.04,1.39,2.06,1.58v.48h-8.64ZM15.26,5.4l-6.34,15.65h12.67l-6.34-15.65Z"/>
      <path d="M58.94,33.19h-21.65v-.48c.51,0,.92-.02,1.22-.07.3-.05.54-.15.7-.31.16-.16.26-.39.31-.7.05-.3.07-.73.07-1.27V3.53c0-.51-.02-.93-.07-1.25-.05-.32-.15-.56-.31-.72-.16-.16-.39-.26-.7-.31-.3-.05-.71-.07-1.22-.07v-.48h8.83v.48c-.51,0-.93.02-1.25.07-.32.05-.57.15-.74.31-.18.16-.3.39-.36.7-.06.3-.1.73-.1,1.27v26.45c0,.29.09.5.26.65.18.14.38.23.62.26.24.03.5.04.77.02.27-.02.5-.02.7-.02h7.01c.86,0,1.63-.03,2.3-.1.67-.06,1.26-.22,1.78-.46.51-.24.97-.61,1.37-1.1.4-.5.79-1.16,1.18-1.99l.62.14-1.34,5.81Z"/>
      <path d="M84.62,33.19h-21.65v-.48c.51,0,.92-.02,1.22-.07.3-.05.54-.15.7-.31.16-.16.26-.39.31-.7.05-.3.07-.73.07-1.27V3.53c0-.51-.02-.93-.07-1.25-.05-.32-.15-.56-.31-.72-.16-.16-.39-.26-.7-.31-.3-.05-.71-.07-1.22-.07v-.48h8.83v.48c-.51,0-.93.02-1.25.07-.32.05-.57.15-.74.31-.18.16-.3.39-.36.7-.06.3-.1.73-.1,1.27v26.45c0,.29.09.5.26.65.18.14.38.23.62.26.24.03.5.04.77.02.27-.02.5-.02.7-.02h7.01c.86,0,1.63-.03,2.3-.1.67-.06,1.26-.22,1.78-.46.51-.24.97-.61,1.37-1.1.4-.5.79-1.16,1.18-1.99l.62.14-1.34,5.81Z"/>
      <path d="M132.48,23.47c-.67,2.03-1.66,3.82-2.95,5.35-1.3,1.54-2.89,2.74-4.78,3.62-1.89.88-4.05,1.32-6.48,1.32s-4.64-.44-6.53-1.32c-1.89-.88-3.48-2.08-4.78-3.6-1.3-1.52-2.27-3.3-2.93-5.35-.66-2.05-.98-4.22-.98-6.53,0-2.85.43-5.33,1.3-7.44.86-2.11,2.02-3.88,3.46-5.3s3.07-2.49,4.9-3.19C114.53.33,116.38-.02,118.27,0c1.89.02,3.74.38,5.57,1.08,1.82.7,3.46,1.76,4.9,3.17,1.44,1.41,2.59,3.18,3.46,5.3.86,2.13,1.3,4.6,1.3,7.42,0,2.3-.34,4.47-1.01,6.5ZM128.57,11.86c-.4-1.74-1.03-3.32-1.9-4.73-.86-1.41-1.98-2.56-3.36-3.46-1.38-.9-3.06-1.34-5.04-1.34s-3.71.45-5.09,1.34c-1.38.9-2.5,2.05-3.36,3.46-.86,1.41-1.49,2.98-1.87,4.7-.38,1.73-.58,3.44-.58,5.14s.19,3.42.58,5.16c.38,1.74,1.01,3.31,1.87,4.7.86,1.39,1.98,2.53,3.36,3.41,1.38.88,3.07,1.32,5.09,1.32s3.67-.44,5.06-1.32c1.39-.88,2.52-2.02,3.38-3.43.86-1.41,1.49-2.98,1.87-4.7.38-1.73.58-3.44.58-5.14s-.2-3.37-.6-5.11Z"/>
      <path d="M158.01,5.64c-.1-.61-.24-1.09-.43-1.44-.19-.35-.43-.62-.72-.79-.29-.18-.64-.29-1.06-.34-.42-.05-.91-.07-1.49-.07h-9.41c-.54,0-.86.06-.94.17-.08.11-.12.42-.12.94v10.99h9.17c.51,0,.96-.02,1.34-.07.38-.05.7-.15.94-.31.24-.16.43-.4.58-.72.14-.32.25-.75.31-1.3h.62v7.25h-.62c-.1-1.12-.38-1.82-.84-2.09-.46-.27-1.24-.41-2.33-.41h-9.22l.05,12.91c0,.54.02.97.07,1.27.05.3.15.54.31.7.16.16.39.26.7.31.3.05.73.07,1.27.07v.48h-8.78v-.48c.51,0,.92-.02,1.22-.07.3-.05.54-.15.7-.31.16-.16.26-.39.31-.7.05-.3.07-.73.07-1.27V3.53c0-.51-.02-.93-.07-1.25-.05-.32-.14-.56-.29-.72-.14-.16-.37-.26-.67-.31-.3-.05-.71-.07-1.22-.07v-.48h21.17l.05,4.94h-.67Z"/>
      <path d="M202.65,3.1l-10.18,15.7v11.57c0,.58.04,1.02.12,1.34.08.32.23.55.46.7.22.14.51.23.86.26.35.03.8.05,1.34.05v.48h-9.6v-.48c.54,0,.99-.02,1.34-.05.35-.03.63-.12.84-.26.21-.14.35-.38.43-.7.08-.32.12-.77.12-1.34v-11.42l-10.61-15.7c-.42-.64-.8-1.14-1.15-1.49-.35-.35-.91-.54-1.68-.58v-.48h9.07v.48c-.38,0-.73.02-1.03.07-.3.05-.54.14-.7.26-.16.13-.23.32-.22.58.02.26.17.59.46,1.01l8.59,13.2,8.5-13.39c.22-.35.32-.64.29-.86-.03-.22-.13-.4-.29-.53-.16-.13-.38-.22-.65-.26-.27-.05-.55-.07-.84-.07v-.48h7.49v.48c-1.28.13-2.27.77-2.98,1.92Z"/>
      <path d="M234,23.47c-.67,2.03-1.66,3.82-2.95,5.35-1.3,1.54-2.89,2.74-4.78,3.62-1.89.88-4.05,1.32-6.48,1.32s-4.64-.44-6.53-1.32c-1.89-.88-3.48-2.08-4.78-3.6-1.3-1.52-2.27-3.3-2.93-5.35-.66-2.05-.98-4.22-.98-6.53,0-2.85.43-5.33,1.3-7.44.86-2.11,2.02-3.88,3.46-5.3,1.44-1.42,3.07-2.49,4.9-3.19C216.04.33,217.9-.02,219.79,0c1.89.02,3.74.38,5.57,1.08,1.82.7,3.46,1.76,4.9,3.17,1.44,1.41,2.59,3.18,3.46,5.3.86,2.13,1.3,4.6,1.3,7.42,0,2.3-.34,4.47-1.01,6.5ZM230.08,11.86c-.4-1.74-1.03-3.32-1.9-4.73-.86-1.41-1.98-2.56-3.36-3.46-1.38-.9-3.06-1.34-5.04-1.34s-3.71.45-5.09,1.34c-1.38.9-2.5,2.05-3.36,3.46-.86,1.41-1.49,2.98-1.87,4.7-.38,1.73-.58,3.44-.58,5.14s.19,3.42.58,5.16c.38,1.74,1.01,3.31,1.87,4.7.86,1.39,1.98,2.53,3.36,3.41,1.38.88,3.07,1.32,5.09,1.32s3.67-.44,5.06-1.32c1.39-.88,2.52-2.02,3.38-3.43.86-1.41,1.49-2.98,1.87-4.7.38-1.73.58-3.44.58-5.14s-.2-3.37-.6-5.11Z"/>
      <path d="M267.6,1.18c-.48,0-.85.14-1.1.41-.26.27-.43.6-.53.98-.1.38-.14.8-.14,1.25v18c0,3.87-1.06,6.83-3.19,8.88-2.13,2.05-5.11,3.07-8.95,3.07s-6.86-1.04-8.98-3.12c-2.11-2.08-3.17-5.06-3.17-8.93V3.53c0-.7-.08-1.27-.24-1.7-.16-.43-.66-.65-1.49-.65h-.72v-.48h8.93v.48c-.51,0-.92.02-1.22.05-.3.03-.54.13-.72.29-.18.16-.3.4-.36.72-.06.32-.1.75-.1,1.3v18.29c0,2.94.68,5.27,2.04,6.98,1.36,1.71,3.58,2.57,6.65,2.57,2.82,0,5-.8,6.55-2.4,1.55-1.6,2.33-3.79,2.33-6.58V3.38c0-.48-.07-.88-.22-1.2s-.39-.57-.74-.74c-.35-.18-.86-.26-1.54-.26v-.48h7.63v.48h-.72Z"/>
      <path d="M295.82,33.19c-.77-1.7-1.54-3.22-2.3-4.58-.77-1.36-1.6-2.63-2.5-3.82-.9-1.18-1.87-2.32-2.93-3.41-1.06-1.09-2.26-2.22-3.6-3.41l-3.46.05v12.34c0,.54.03.98.1,1.3.06.32.18.56.34.72.16.16.4.26.72.29.32.03.74.05,1.25.05v.48h-8.74v-.48c.48,0,.87-.02,1.18-.07.3-.05.54-.15.7-.31s.26-.39.31-.7c.05-.3.07-.73.07-1.27V3.53c0-.51-.02-.93-.07-1.25-.05-.32-.15-.56-.31-.72s-.39-.26-.7-.31c-.3-.05-.7-.07-1.18-.07v-.48h11.47c1.41,0,2.76.15,4.06.46,1.3.3,2.44.79,3.43,1.46.99.67,1.78,1.55,2.38,2.64.59,1.09.89,2.43.89,4.03,0,1.22-.22,2.28-.67,3.19-.45.91-1.06,1.68-1.82,2.3-.77.62-1.65,1.13-2.64,1.51-.99.38-2.03.66-3.12.82.93.77,1.68,1.42,2.26,1.97.58.54,1.08,1.06,1.51,1.56s.86,1.01,1.27,1.54c.42.53.91,1.14,1.49,1.85.64.8,1.25,1.7,1.82,2.71s1.11,1.95,1.61,2.83c.5.88.95,1.62,1.37,2.23.42.61.82.91,1.2.91v.48h-5.38ZM281.04,15.72h2.3c1.15,0,2.28-.1,3.38-.31,1.1-.21,2.1-.58,3-1.1.9-.53,1.62-1.24,2.16-2.14.54-.9.82-2.02.82-3.36,0-1.18-.22-2.16-.67-2.93-.45-.77-1.05-1.37-1.8-1.8-.75-.43-1.61-.73-2.57-.89-.96-.16-1.94-.24-2.93-.24h-.96c-.32,0-.66.02-1.01.05-.35.03-.68.11-.98.24-.3.13-.55.3-.74.53v11.95Z"/>
    </g>
  </g>
</svg>