<?xml version="1.0" encoding="UTF-8"?>
<svg id="_레이어_2" data-name="레이어 2" xmlns="http://www.w3.org/2000/svg" viewBox="0 0 30 30">
  <defs>
    <style>
      .cls-1 {
        fill: #f4ebdc;
      }

      .cls-2 {
        fill: gray;
      }
    </style>
  </defs>
  <g id="_레이어_1-2" data-name="레이어 1">
    <g>
      <circle class="cls-1" cx="15" cy="15" r="15"/>
      <g>
        <path class="cls-2" d="M13,12.72c-.05-.24-.12-.4-.23-.49-.11-.09-.28-.13-.52-.13h-1.17v5.1c0,.11,0,.19.02.25.01.06.04.1.07.13.04.03.09.05.15.05s.15,0,.25,0v.09h-1.74v-.09c.1,0,.18,0,.24,0s.11-.02.15-.05c.04-.03.06-.07.08-.13.01-.06.02-.14.02-.25v-5.1h-1.19c-.23,0-.41.04-.52.13-.11.09-.19.25-.24.49h-.08l.04-1.08h4.73l.03,1.08h-.09Z"/>
        <path class="cls-2" d="M16.2,16.84c-.2.33-.45.58-.76.75-.31.17-.63.25-.99.25s-.68-.08-.99-.24c-.31-.17-.56-.41-.76-.75s-.3-.75-.3-1.25.1-.92.3-1.26c.2-.34.45-.59.76-.75.31-.17.63-.25.98-.25s.68.08.99.25c.31.17.56.42.76.76.2.34.3.75.3,1.25s-.1.91-.3,1.25ZM15.58,14.57c-.14-.28-.31-.49-.51-.64-.2-.15-.42-.23-.66-.24s-.45.05-.65.18c-.2.13-.36.34-.49.63s-.19.65-.18,1.08c0,.41.08.75.22,1.03.14.28.31.49.52.63.2.14.42.22.66.23.23,0,.45-.06.65-.19.2-.14.36-.35.49-.63.13-.28.19-.64.18-1.07-.01-.4-.09-.74-.23-1.02Z"/>
        <path class="cls-2" d="M18.44,19.2c0,.1,0,.17.02.22s.04.09.08.11c.04.02.08.04.14.04.06,0,.13,0,.21,0v.07h-1.46v-.07c.16,0,.25-.02.3-.06s.06-.15.06-.32v-5.2c0-.09,0-.15-.02-.19s-.03-.06-.05-.08c-.02-.01-.06-.01-.1,0-.05,0-.1.01-.16.01v-.08l.78-.27h.17v.77c.17-.25.37-.45.59-.59s.5-.22.8-.22.57.07.79.2c.22.13.4.31.54.53.14.22.23.47.28.75s.07.56.05.84c-.02.28-.08.55-.17.81-.09.26-.21.49-.37.68-.15.19-.34.34-.57.46s-.47.19-.71.21c-.24.02-.47-.02-.69-.11-.22-.09-.39-.26-.53-.49v1.97ZM20.63,14.68c-.12-.27-.26-.47-.44-.6-.17-.14-.36-.21-.57-.22-.2,0-.39.03-.57.13-.17.1-.32.24-.44.43-.12.19-.18.42-.18.68v1.18c0,.26.06.48.18.66.12.18.26.32.44.41.17.09.36.14.57.13.2,0,.39-.08.57-.2.17-.13.32-.32.44-.57.12-.25.18-.58.18-.99,0-.43-.06-.77-.18-1.04Z"/>
      </g>
    </g>
  </g>
</svg>